<?xml version="1.0" encoding="UTF-8" standalone="no"?>
<!-- Created with Inkscape (http://www.inkscape.org/) -->

<svg
   xmlns:dc="http://purl.org/dc/elements/1.1/"
   xmlns:cc="http://creativecommons.org/ns#"
   xmlns:rdf="http://www.w3.org/1999/02/22-rdf-syntax-ns#"
   xmlns:svg="http://www.w3.org/2000/svg"
   xmlns="http://www.w3.org/2000/svg"
   xmlns:sodipodi="http://sodipodi.sourceforge.net/DTD/sodipodi-0.dtd"
   xmlns:inkscape="http://www.inkscape.org/namespaces/inkscape"
   width="100"
   height="100"
   id="svg2"
   version="1.1"
   inkscape:version="0.48.3.1 r9886"
   sodipodi:docname="ml.svg">
  <defs
     id="defs4" />
  <sodipodi:namedview
     id="base"
     pagecolor="#ffffff"
     bordercolor="#666666"
     borderopacity="1.0"
     inkscape:pageopacity="0.0"
     inkscape:pageshadow="2"
     inkscape:zoom="5.8840363"
     inkscape:cx="55.329817"
     inkscape:cy="55.251288"
     inkscape:document-units="px"
     inkscape:current-layer="layer1"
     showgrid="false"
     inkscape:window-width="1920"
     inkscape:window-height="1080"
     inkscape:window-x="0"
     inkscape:window-y="-22"
     inkscape:window-maximized="1" />
  <metadata
     id="metadata7">
    <rdf:RDF>
      <cc:Work
         rdf:about="">
        <dc:format>image/svg+xml</dc:format>
        <dc:type
           rdf:resource="http://purl.org/dc/dcmitype/StillImage" />
        <dc:title></dc:title>
      </cc:Work>
    </rdf:RDF>
  </metadata>
  <g
     inkscape:label="Layer 1"
     inkscape:groupmode="layer"
     id="layer1"
     transform="translate(0,-952.36215)">
    <g
       transform="matrix(1.1043825,0,-0.31309067,1.0330519,-1.3883878,-71.478747)"
       style="font-size:96.71666718px;font-style:normal;font-variant:normal;font-weight:900;font-stretch:normal;line-height:125%;letter-spacing:0px;word-spacing:0px;fill:#000000;fill-opacity:1;stroke:none;font-family:Simonetta;-inkscape-font-specification:Simonetta Heavy"
       id="text2985">
      <path
         d="M 10.15625,7.6875 L 8.03125,42.6875 L 19.75,42.6875 L 20.40625,25.71875 L 20.75,25.71875 L 25.0625,42.6875 L 33.625,42.6875 L 37.875,25.71875 L 38.28125,25.71875 L 38.9375,42.6875 L 41.6875,42.6875 L 41.65625,42.75 L 43.46875,43.03125 C 44.399137,43.183579 45.208041,43.382252 45.90625,43.65625 C 46.613653,43.899879 47.132459,44.328572 47.46875,44.9375 C 47.846754,45.516156 48.052,46.339842 48.03125,47.375 C 48.010421,48.410352 47.726311,49.762754 47.21875,51.4375 C 46.812677,52.777316 46.31423,54.361306 45.71875,56.21875 C 45.123239,58.076194 44.470314,60.088092 43.75,62.25 C 43.038898,64.381442 42.276955,66.624241 41.46875,68.96875 C 40.693015,71.313452 39.894049,73.65461 39.0625,75.96875 C 38.272712,78.252424 37.502863,80.463092 36.75,82.625 C 36.00635,84.756442 35.290437,86.702704 34.625,88.46875 C 33.680974,88.46875 32.723004,88.502353 31.71875,88.59375 C 30.756297,88.654585 29.862207,88.720319 29.0625,88.78125 C 28.123373,88.872551 27.217769,88.971199 26.34375,89.0625 L 23.28125,97.9375 C 27.261322,97.693871 31.250966,97.528801 35.25,97.4375 C 39.249032,97.346103 43.217425,97.28125 47.15625,97.28125 C 53.438766,97.28125 59.223423,97.380586 64.5625,97.59375 C 69.934043,97.806914 75.113525,98.136173 80.0625,98.5625 L 89.84375,75.78125 L 77.15625,75.78125 C 76.188549,77.577762 75.231407,79.12815 74.28125,80.4375 C 73.363538,81.74685 72.332678,82.835727 71.21875,83.71875 C 70.137278,84.601773 68.885888,85.294088 67.46875,85.78125 C 66.084059,86.268509 64.454834,86.565734 62.5625,86.6875 L 51.71875,87.46875 C 55.772532,75.167164 59.051619,65.304678 61.53125,57.875 C 64.052601,50.414857 65.775381,45.565805 66.71875,43.3125 C 67.662695,43.312597 68.631247,43.279681 69.59375,43.21875 C 70.556161,43.157915 71.419001,43.092181 72.21875,43.03125 C 73.157846,42.939949 74.06341,42.841397 74.9375,42.75 L 78.09375,33.84375 C 74.458124,34.239611 71.254084,34.470415 68.46875,34.53125 C 65.715854,34.592278 63.214787,34.625097 60.96875,34.625 C 58.624947,34.625097 56.46716,34.592278 54.5,34.53125 C 52.830041,34.453465 51.447294,34.359196 50.15625,34.28125 L 48.53125,7.6875 L 33.90625,7.6875 L 29.53125,25.5 L 29.15625,25.5 L 24.78125,7.6875 L 10.15625,7.6875 z"
         transform="matrix(0.96716663,0,0.29312258,1.033948,279.15885,984.69291)"
         id="path3000"
         inkscape:connector-curvature="0" />
    </g>
    <g
       style="font-size:40px;font-style:normal;font-variant:normal;font-weight:900;font-stretch:normal;line-height:125%;letter-spacing:0px;word-spacing:0px;fill:#000000;fill-opacity:1;stroke:none;font-family:Simonetta;-inkscape-font-specification:Simonetta Heavy"
       id="text2989" />
  </g>
</svg>
